# AST/ASF file generated using VICON BodyLanguage
# -----------------------------------------------
:version 1.10
:name VICON
:units
  mass 1.0
  length 0.45
  angle deg
:documentation
   .ast/.asf automatically generated from VICON data using
   VICON BodyBuilder and BodyLanguage model FoxedUp or BRILLIANT.MOD
:root
   order TX TY TZ RX RY RZ
   axis XYZ
   position 0 0 0  
   orientation 0 0 0 
:bonedata
  begin
     id 1 
     name lhipjoint
     direction 0.561001 -0.76473 0.316963 
     length 2.4722 
     axis 0 0 0  XYZ
  end
  begin
     id 2 
     name lfemur
     direction 0.34202 -0.939693 0  
     length 7.59403  
     axis 0 0 20  XYZ
    dof rx ry rz
    limits (-160.0 20.0)
           (-70.0 70.0)
           (-60.0 70.0)
  end
  begin
     id 3 
     name ltibia
     direction 0.34202 -0.939693 0   
     length 7.89655   
     axis 0 0 20   XYZ
    dof rx
    limits (-10.0 170.0)
  end
  begin
     id 4 
     name lfoot
     direction 0.061296 -0.168409 0.98381   
     length 2.73287   
     axis -90 7.62852e-016 20   XYZ
    dof rx rz
    limits (-45.0 90.0)
           (-70.0 20.0)
  end
  begin
     id 5 
     name ltoes
     direction 1.53547e-011 -4.21984e-011 1   
     length 1.37057   
     axis -90 7.62852e-016 20   XYZ
    dof rx
    limits (-90.0 20.0)
  end
  begin
     id 6 
     name rhipjoint
     direction -0.559611 -0.765599 0.317323   
     length 2.46939  
     axis 0 0 0  XYZ 
  end
  begin
     id 7 
     name rfemur
     direction -0.34202 -0.939693 0   
     length 7.53712   
     axis 0 0 -20   XYZ
    dof rx ry rz
    limits (-160.0 20.0)
           (-70.0 70.0)
           (-70.0 60.0)
  end
  begin
     id 8 
     name rtibia
     direction -0.34202 -0.939693 0   
     length 8.12549   
     axis 0 0 -20   XYZ
    dof rx
    limits (-10.0 170.0)
 end
 begin
     id 9 
     name rfoot
     direction -0.066984 -0.184037 0.980634   
     length 2.67541  
     axis -90 -7.62852e-016 -20   XYZ
    dof rx rz
    limits (-45.0 90.0)
           (-20.0 70.0)
  end
  begin
     id 10 
     name rtoes
     direction -1.53549e-011 -4.21786e-011 1   
     length 1.34085   
     axis -90 -7.62852e-016 -20   XYZ
    dof rx
    limits (-90.0 20.0)
  end
  begin
     id 11 
     name lowerback
     direction -0.0522728 0.992594 -0.109658   
     length 2.05633   
     axis 0 0 0   XYZ
    dof rx ry rz
    limits (-20.0 45.0)
           (-30.0 30.0)
           (-30.0 30.0)
  end
  begin
     id 12 
     name upperback
     direction 0.00589338 0.999977 0.00335704   
     length 2.05845   
     axis 0 0 0   XYZ
    dof rx ry rz
    limits (-20.0 45.0)
           (-30.0 30.0)
           (-30.0 30.0)
  end
  begin
     id 13 
     name thorax
     direction 0.0292928 0.998059 0.0549487   
     length 2.09281   
     axis 0 0 0   XYZ
    dof rx ry rz
    limits (-20.0 45.0)
           (-30.0 30.0)
           (-30.0 30.0)
  end
  begin
     id 14 
     name lowerneck
     direction 0.0356368 0.980775 0.191858   
     length 1.84767   
     axis 0 0 0   XYZ
    dof rx ry rz
    limits (-20.0 45.0)
           (-30.0 30.0)
           (-30.0 30.0)
  end
  begin
     id 15 
     name upperneck
     direction -0.0227605 0.98931 -0.14404   
     length 1.89582   
     axis 0 0 0   XYZ
    dof rx ry rz
    limits (-20.0 45.0)
           (-30.0 30.0)
           (-30.0 30.0)
  end
  begin
     id 16
     name head
     direction -0.00932985 0.997511 -0.0698904  
     length 1.90213  
     axis 0 0 0   XYZ
    dof rx ry rz
    limits (-20.0 45.0)
           (-30.0 30.0)
           (-30.0 30.0)
  end
  begin
     id 17 
     name lclavicle
     direction 0.873442 0.479511 0.0846686  
     length 3.41193  
     axis 0 0 0   XYZ
    dof ry rz
    limits (-20.0 10.0)
           (0.0 20.0)
  end
  begin
     id 18 
     name lhumerus
     direction 1 -4.4897e-011 -5.62117e-018   
     length 5.59864   
     axis 180 -30 -90   XYZ
    dof rx ry rz
    limits (-60.0 90.0)
           (-90.0 90.0)
           (-90.0 90.0)
  end
  begin
     id 19
     name lradius
     direction 1 -4.48966e-011 -6.26295e-027   
     length 3.59542   
     axis 180 -30 -90   XYZ
    dof rx
    limits (-10.0 170.0)
  end
  begin
     id 20
     name lwrist
     direction 1 -4.48947e-011 -1.74096e-026   
     length 1.79771   
     axis 1.04567e-014 90 90   XYZ
    dof ry
    limits (-180.0 0.0)
 end
  begin
     id 21 
     name lhand
     direction 1 -4.49085e-011 -3.48469e-026   
     length 0.572014   
     axis 2.22196e-014 90 90   XYZ
    dof rx rz
    limits (-90.0 90.0)
           (-45.0 45.0)
  end
  begin
     id 22 
     name lfingers
     direction 1 -4.48884e-011 -6.96135e-026   
     length 0.461173   
     axis 4.44383e-014 90 90   XYZ
    dof rx
    limits (0.0 90.0)
  end
  begin
     id 23
     name lthumb
     direction 0.707107 -6.34976e-011 0.707107   
     length 0.662154   
     axis -90 45 -5.4397e-014   XYZ
    dof rx rz
    limits (-45.0 45.0)
           (-45.0 45.0)
  end
  begin
     id 24 
     name rclavicle
     direction -0.890242 0.443271 0.104786   
     length 3.46753  
     axis 0 0 0   XYZ 
    dof ry rz
    limits (-10.0 20.0)
           (-20.0 0.0)
  end
  begin
     id 25 
     name rhumerus
     direction -1 -4.48963e-011 -5.41723e-018  
     length 5.8094   
     axis 180 30 90   XYZ
    dof rx ry rz
    limits (-90.0 60.0)
           (-90.0 90.0)
           (-90.0 90.0)
  end
  begin
     id 26 
     name rradius
     direction -1 -4.48958e-011 -6.51059e-027   
     length 3.66953   
     axis 180 30 90   XYZ
    dof rx
    limits (-10.0 170.0)
  end
  begin
     id 27 
     name rwrist
     direction -1 -4.48975e-011 -1.74124e-026   
     length 1.83476   
     axis 1.04567e-014 -90 -90   XYZ
    dof ry
    limits (-180.0 0.0)
  end
  begin
     id 28
     name rhand
     direction -1 -4.49013e-011 -3.48326e-026   
     length 0.57843   
     axis 2.22196e-014 -90 -90   XYZ
    dof rx rz
    limits (-90.0 90.0)
           (-45.0 45.0)
  end
  begin
     id 29
     name rfingers
     direction -1 -4.49023e-011 -6.9669e-026   
     length 0.466345   
     axis 4.44383e-014 -90 -90   XYZ
    dof rx
    limits (0.0 90.0)
  end
  begin
     id 30
     name rthumb
     direction -0.707107 -6.34926e-011 0.707107   
     length 0.669581   
     axis -90 -45 5.4397e-014   XYZ
    dof rx rz
    limits (-45.0 45.0)
           (-45.0 45.0)
  end
:hierarchy
  begin
    root lhipjoint rhipjoint lowerback
    lhipjoint lfemur
    lfemur ltibia
    ltibia lfoot
    lfoot ltoes
    rhipjoint rfemur
    rfemur rtibia
    rtibia rfoot
    rfoot rtoes
    lowerback upperback
    upperback thorax
    thorax lowerneck lclavicle rclavicle
    lowerneck upperneck
    upperneck head
    lclavicle lhumerus
    lhumerus lradius
    lradius lwrist
    lwrist lhand lthumb
    lhand lfingers
    rclavicle rhumerus
    rhumerus rradius
    rradius rwrist
    rwrist rhand rthumb
    rhand rfingers
  end

#!OML:ASF H:\SkateBoarding\Project 1\Capture day 1\Session 1\Skater.ASF
:FULLY-SPECIFIED
:DEGREES
64
root 2.41007 19.5279 -17.9483 -2.51908 52.4781 -6.62042
lowerback 5.10479 -2.09507 -5.55142
upperback -2.4767 -3.21644 -0.358999
thorax -5.16232 -1.40249 3.03372
lowerneck -14.7772 -4.14098 -1.66158
upperneck 39.8487 -6.23402 2.82104
head 17.2025 -2.16318 0.491507
rclavicle -4.95471e-014 -1.90833e-014
rhumerus -38.4487 -19.237 -79.7356
rradius 29.2233
rwrist -6.58068
rhand -39.352 -1.80452
rfingers 7.12502
rthumb -12.3431 -31.4202
lclavicle -4.95471e-014 -1.90833e-014
lhumerus -37.4209 7.16535 87.6741
lradius 26.827
lwrist 20.0605
lhand -24.2643 21.8167
lfingers 7.12502
lthumb 2.22209 51.7848
rfemur -25.2172 -0.378878 21.9627
rtibia 42.6987
rfoot -14.9449 6.57036
rtoes -9.34943
lfemur -1.98851 3.05769 -15.6769
ltibia 34.6847
lfoot -50.4745 12.4753
ltoes -11.9646
65
root 2.44313 19.5265 -17.6723 -2.41174 51.6982 -6.40682
lowerback 5.10752 -2.12799 -5.42534
upperback -2.44879 -3.24863 -0.309282
thorax -5.13486 -1.42368 3.01724
lowerneck -14.8358 -3.99541 -1.51967
upperneck 39.831 -6.00472 2.65867
head 17.1834 -2.07525 0.433383
rclavicle 3.04886e-014 -1.59028e-014
rhumerus -38.3693 -18.2887 -80.2559
rradius 29.5222
rwrist -6.05554
rhand -39.2336 -1.34409
rfingers 7.12502
rthumb -12.2289 -30.9666
lclavicle 3.04886e-014 -1.59028e-014
lhumerus -37.2253 6.65237 88.2663
lradius 26.9133
lwrist 19.7335
lhand -24.1394 21.0988
lfingers 7.12502
lthumb 2.34277 51.0657
rfemur -25.4281 -0.4389 21.9628
rtibia 42.8616
rfoot -14.6385 6.49293
rtoes -9.28226
lfemur -1.90077 3.68011 -15.8895
ltibia 34.7419
lfoot -50.6691 12.4829
ltoes -11.8219
66
root 2.47659 19.5246 -17.3962 -2.30758 50.9649 -6.19987
lowerback 5.11044 -2.16386 -5.30078
upperback -2.42413 -3.28504 -0.26067
thorax -5.11067 -1.44669 3.00088
lowerneck -14.8831 -3.85542 -1.39632
upperneck 39.7913 -5.78195 2.50838
head 17.1521 -1.99172 0.382909
rclavicle 1.4064e-014 -1.90833e-014
rhumerus -38.3287 -17.2969 -80.7649
rradius 29.8633
rwrist -5.60221
rhand -39.1602 -0.864103
rfingers 7.12502
rthumb -12.1581 -30.4908
lclavicle 1.4064e-014 -1.90833e-014
lhumerus -36.981 6.12696 88.8393
lradius 26.984
lwrist 19.3864
lhand -24.0297 20.3825
lfingers 7.12502
lthumb 2.44865 50.3482
rfemur -25.5936 -0.495982 21.9724
rtibia 42.9663
rfoot -14.5293 6.33437
rtoes -9.31709
lfemur -1.84119 4.30312 -16.1048
ltibia 34.8086
lfoot -50.8268 12.5875
ltoes -11.8651
67
root 2.51034 19.5218 -17.1194 -2.20593 50.2779 -5.99734
lowerback 5.11566 -2.20371 -5.18109
upperback -2.40711 -3.32766 -0.215897
thorax -5.09539 -1.47217 2.98405
lowerneck -14.9155 -3.72541 -1.28238
upperneck 39.7414 -5.57291 2.36311
head 17.1133 -1.91481 0.334114
rclavicle -4.14218e-014 1.27222e-014
rhumerus -38.3367 -16.2979 -81.2491
rradius 30.2435
rwrist -5.26169
rhand -39.1111 -0.408417
rfingers 7.12502
rthumb -12.1107 -30.0379
lclavicle -4.14218e-014 1.27222e-014
lhumerus -36.7093 5.5587 89.3941
lradius 27.0565
lwrist 19.051
lhand -23.9508 19.6984
lfingers 7.12502
lthumb 2.52483 49.6632
rfemur -25.7015 -0.543893 21.9919
rtibia 43.001
rfoot -14.6405 6.09131
rtoes -9.66366
lfemur -1.80322 4.91663 -16.3193
ltibia 34.8902
lfoot -50.9721 12.7131
ltoes -11.9924
68
root 2.5436 19.5179 -16.8414 -2.09576 49.6584 -5.79374
lowerback 5.11659 -2.25064 -5.07966
upperback -2.39749 -3.38111 -0.174246
thorax -5.08388 -1.50214 2.97504
lowerneck -14.9397 -3.60832 -1.17367
upperneck 39.689 -5.38234 2.21968
head 17.073 -1.84588 0.28388
rclavicle 6.75868e-015 1.74931e-014
rhumerus -38.3819 -15.3305 -81.6942
rradius 30.6478
rwrist -5.07159
rhand -39.089 -0.0204511
rfingers 7.12502
rthumb -12.0895 -29.6512
lclavicle 6.75868e-015 1.74931e-014
lhumerus -36.4073 4.94301 89.9304
lradius 27.1286
lwrist 18.73
lhand -23.8937 19.0474
lfingers 7.12502
lthumb 2.58001 49.0116
rfemur -25.7542 -0.581814 22.0137
rtibia 42.96
rfoot -14.9738 5.76735
rtoes -10.1177
lfemur -1.79908 5.49441 -16.5366
ltibia 34.9907
lfoot -51.1103 12.8337
ltoes -12.1458
69
root 2.57686 19.5132 -16.5621 -1.98346 49.1011 -5.59882
lowerback 5.10324 -2.30503 -4.9896
upperback -2.39438 -3.44465 -0.132287
thorax -5.06972 -1.53664 2.97295
lowerneck -14.9629 -3.50175 -1.06943
upperneck 39.6434 -5.20393 2.07086
head 17.0373 -1.78291 0.229929
rclavicle 9.44724e-014 1.74931e-014
rhumerus -38.4487 -14.4162 -82.0902
rradius 31.0545
rwrist -5.04365
rhand -39.0791 0.280007
rfingers 7.12502
rthumb -12.0799 -29.3513
lclavicle 9.44724e-014 1.74931e-014
lhumerus -36.0794 4.29314 90.4409
lradius 27.2003
lwrist 18.408
lhand -23.8406 18.4402
lfingers 7.12502
lthumb 2.63127 48.4037
rfemur -25.7502 -0.592145 22.036
rtibia 42.8441
rfoot -15.5032 5.385
rtoes -10.7254
lfemur -1.82435 6.03557 -16.7493
ltibia 35.1097
lfoot -51.2506 12.9483
ltoes -12.3146
70
root 2.60985 19.508 -16.2812 -1.86049 48.6097 -5.40825
lowerback 5.07691 -2.36678 -4.91267
upperback -2.40331 -3.51859 -0.0914352
thorax -5.05941 -1.5755 2.97754
lowerneck -14.9835 -3.4067 -0.971654
upperneck 39.6113 -5.04069 1.92215
head 17.0098 -1.72648 0.17459
rclavicle -1.31198e-014 1.66979e-014
rhumerus -38.5464 -13.5763 -82.4296
rradius 31.4607
rwrist -5.16766
rhand -39.0563 0.479953
rfingers 7.12502
rthumb -12.058 -29.1527
lclavicle -1.31198e-014 1.66979e-014
lhumerus -35.7353 3.61289 90.9172
lradius 27.2701
lwrist 18.0582
lhand -23.7509 17.8563
lfingers 7.12502
lthumb 2.71789 47.8187
rfemur -25.6996 -0.538112 22.0421
rtibia 42.6612
rfoot -16.1595 4.99017
rtoes -11.265
lfemur -1.88488 6.53813 -16.9587
ltibia 35.2477
lfoot -51.384 13.0762
ltoes -12.528
71
root 2.64258 19.5024 -15.9992 -1.7263 48.188 -5.21597
lowerback 5.03465 -2.43836 -4.85185
upperback -2.41703 -3.60606 -0.0510511
thorax -5.04313 -1.6206 2.99093
lowerneck -15.0119 -3.32147 -0.885799
upperneck 39.5916 -4.8897 1.77694
head 16.9928 -1.67571 0.120664
rclavicle -4.86029e-014 -7.95139e-016
rhumerus -38.6574 -12.8275 -82.7073
rradius 31.8501
rwrist -5.41332
rhand -39.0279 0.591924
rfingers 7.12502
rthumb -12.0305 -29.0423
lclavicle -4.86029e-014 -7.95139e-016
lhumerus -35.3683 2.91245 91.3596
lradius 27.3446
lwrist 17.6946
lhand -23.6126 17.3166
lfingers 7.12502
lthumb 2.85153 47.2773
rfemur -25.607 -0.416551 22.0174
rtibia 42.4276
rfoot -16.8744 4.63341
rtoes -11.8472
lfemur -1.97243 6.98776 -17.1701
ltibia 35.4033
lfoot -51.5213 13.2237
ltoes -12.7671
72
root 2.6749 19.4962 -15.7157 -1.59149 47.8186 -5.02914
lowerback 4.98192 -2.51278 -4.79967
upperback -2.43637 -3.69767 -0.0137029
thorax -5.02619 -1.66743 3.0058
lowerneck -15.0449 -3.24501 -0.807208
upperneck 39.5843 -4.75217 1.63861
head 16.9852 -1.62994 0.0686618
rclavicle 9.01985e-015 -8.74653e-015
rhumerus -38.7859 -12.1955 -82.9188
rradius 32.2198
rwrist -5.75393
rhand -38.9813 0.619994
rfingers 7.12502
rthumb -11.9856 -29.0168
lclavicle 9.01985e-015 -8.74653e-015
lhumerus -34.9873 2.18993 91.7601
lradius 27.4294
lwrist 17.3371
lhand -23.4399 16.8308
lfingers 7.12502
lthumb 3.01832 46.7892
rfemur -25.4799 -0.19711 21.9629
rtibia 42.1676
rfoot -17.6052 4.35022
rtoes -12.2738
lfemur -2.07418 7.40369 -17.3702
ltibia 35.5729
lfoot -51.6551 13.4098
ltoes -13.0456
73
root 2.70661 19.4892 -15.4312 -1.44688 47.5079 -4.84199
lowerback 4.92369 -2.59545 -4.75672
upperback -2.46572 -3.80099 0.0229893
thorax -5.0152 -1.71939 3.02595
lowerneck -15.0801 -3.17594 -0.749613
upperneck 39.5859 -4.62416 1.51436
head 16.9851 -1.5888 0.0249779
rclavicle -7.55879e-014 -1.59028e-015
rhumerus -38.9336 -11.6724 -83.0629
rradius 32.5604
rwrist -6.1418
rhand -38.923 0.619279
rfingers 7.12502
rthumb -11.9294 -29.0208
lclavicle -7.55879e-014 -1.59028e-015
lhumerus -34.5976 1.46694 92.1143
lradius 27.5293
lwrist 16.9969
lhand -23.208 16.3959
lfingers 7.12502
lthumb 3.24222 46.351
rfemur -25.342 0.0993473 21.8717
rtibia 41.9111
rfoot -18.2906 4.19329
rtoes -12.5321
lfemur -2.19173 7.76539 -17.5647
ltibia 35.7537
lfoot -51.7949 13.6434
ltoes -13.3867
